HIERARCHY
ROOT Hips
{
	OFFSET 0.000000 0.000000 0.000000
	CHANNELS 6 Xposition Yposition Zposition Yrotation Xrotation Zrotation
	JOINT Chest
	{
		OFFSET 0.000000 -0.009281 11.569106
		CHANNELS 3 Yrotation Xrotation Zrotation
		JOINT Chest2
		{
			OFFSET -0.000000 0.016865 9.269641
			CHANNELS 3 Yrotation Xrotation Zrotation
			JOINT Chest3
			{
				OFFSET -0.000000 0.000001 8.374491
				CHANNELS 3 Yrotation Xrotation Zrotation
				JOINT Chest4
				{
					OFFSET -0.000000 0.000001 8.374493
					CHANNELS 3 Yrotation Xrotation Zrotation
					JOINT Neck
					{
						OFFSET -0.000000 0.000002 12.152554
						CHANNELS 3 Yrotation Xrotation Zrotation
						JOINT Head
						{
							OFFSET -0.000000 0.040101 7.802319
							CHANNELS 3 Yrotation Xrotation Zrotation
							End Site
							{
								OFFSET -0.000000 0.020947 14.853096
							}
						}
					}
					JOINT RightCollar
					{
						OFFSET 2.894404 0.000001 6.791374
						CHANNELS 3 Yrotation Xrotation Zrotation
						JOINT RightShoulder
						{
							OFFSET 13.574684 0.000001 0.000000
							CHANNELS 3 Yrotation Xrotation Zrotation
							JOINT RightElbow
							{
								OFFSET 23.923903 0.000002 0.000000
								CHANNELS 3 Yrotation Xrotation Zrotation
								JOINT RightWrist
								{
									OFFSET 19.846718 0.012767 0.000000
									CHANNELS 3 Yrotation Xrotation Zrotation
									End Site
									{
										OFFSET 14.973145 0.000001 0.000000
									}
								}
							}
						}
					}
					JOINT LeftCollar
					{
						OFFSET -2.894404 0.000001 6.791374
						CHANNELS 3 Yrotation Xrotation Zrotation
						JOINT LeftShoulder
						{
							OFFSET -13.574684 -0.000001 0.000000
							CHANNELS 3 Yrotation Xrotation Zrotation
							JOINT LeftElbow
							{
								OFFSET -23.923903 -0.000002 0.000000
								CHANNELS 3 Yrotation Xrotation Zrotation
								JOINT LeftWrist
								{
									OFFSET -19.846718 0.012763 0.000000
									CHANNELS 3 Yrotation Xrotation Zrotation
									End Site
									{
										OFFSET -14.973145 -0.000001 0.000000
									}
								}
							}
						}
					}
				}
			}
		}
	}
	JOINT RightHip
	{
		OFFSET 9.469263 0.004643 0.045487
		CHANNELS 3 Yrotation Xrotation Zrotation
		JOINT RightKnee
		{
			OFFSET 0.000000 0.002661 -40.478676
			CHANNELS 3 Yrotation Xrotation Zrotation
			JOINT RightAnkle
			{
				OFFSET 0.000000 0.049106 -35.224068
				CHANNELS 3 Yrotation Xrotation Zrotation
				JOINT RightToe
				{
					OFFSET -0.000001 12.539529 -6.151390
					CHANNELS 3 Yrotation Xrotation Zrotation
					End Site
					{
						OFFSET -0.000001 5.044994 -1.291870
					}
				}
			}
		}
	}
	JOINT LeftHip
	{
		OFFSET -9.469263 0.004641 0.045487
		CHANNELS 3 Yrotation Xrotation Zrotation
		JOINT LeftKnee
		{
			OFFSET 0.000000 0.002661 -40.478676
			CHANNELS 3 Yrotation Xrotation Zrotation
			JOINT LeftAnkle
			{
				OFFSET 0.000000 0.049106 -35.224068
				CHANNELS 3 Yrotation Xrotation Zrotation
				JOINT LeftToe
				{
					OFFSET -0.000001 12.539529 -6.151390
					CHANNELS 3 Yrotation Xrotation Zrotation
					End Site
					{
						OFFSET -0.000001 5.044994 -1.291870
					}
				}
			}
		}
	}
}
MOTION
Frames: 8
Frame Time: 0.016667
13.861710 4.944574 82.786453 -4.869841 -1.214971 -107.918915 10.553190 0.421744 -5.364663 4.714423 0.071825 -2.435894 4.714426 0.071825 -2.435895 3.536171 0.035081 -1.827605 -6.372758 -17.931729 18.327119 -5.743991 2.471029 31.595970 6.440252 6.850483 -6.174172 65.689201 41.024271 21.651546 54.111200 36.560281 67.358608 18.242607 36.906169 27.779969 -7.176522 0.491797 -10.731657 -77.484944 46.589468 -67.026955 -48.069782 41.422778 -62.513265 48.321191 46.705923 7.774188 -3.236703 -11.963195 2.811935 -0.165610 -0.373638 0.692377 2.064486 7.224341 -2.712950 0.142011 0.178126 -0.014009 -4.066730 -11.561877 3.299632 0.249591 0.205665 4.349126 -0.123320 5.358981 -1.582788 0.236132 0.027904 0.026002 
13.860106 4.978985 82.792877 -4.887234 -1.243170 -107.947131 10.550603 0.396970 -5.350764 4.714640 0.061318 -2.429158 4.714642 0.061317 -2.429163 3.536288 0.027252 -1.822475 -6.384186 -17.922753 18.321429 -5.764610 2.490406 31.582399 6.442931 6.841003 -6.182112 65.906695 41.016587 22.044760 53.956616 37.537811 67.026333 17.530712 38.118196 28.427174 -7.171250 0.528231 -10.735936 -77.412135 46.600721 -67.032405 -47.979559 41.424653 -62.457634 48.276501 47.109560 7.841839 -3.245581 -11.944969 2.815681 -0.164584 -0.424859 0.703954 2.067418 7.206623 -2.683428 0.132330 0.174455 -0.012397 -4.060670 -11.573802 3.288272 0.230911 0.190078 4.357490 -0.132717 5.347887 -1.571946 0.224265 0.018328 0.024659 
13.854939 5.010162 82.798111 -4.906325 -1.278363 -107.996588 10.549304 0.365451 -5.328961 4.715022 0.048175 -2.418100 4.715020 0.048175 -2.418099 3.536522 0.017476 -1.814076 -6.390436 -17.918696 18.313139 -5.777599 2.500013 31.565381 6.462296 6.839976 -6.178570 66.140772 41.006465 22.367536 53.656194 38.433591 66.536943 16.712279 39.338085 28.872217 -7.171497 0.565865 -10.746367 -77.347255 46.609887 -67.043709 -47.887091 41.421436 -62.397924 48.323349 47.611046 7.992972 -3.245620 -11.924199 2.815399 -0.165843 -0.481317 0.728919 2.070165 7.195375 -2.659160 0.121897 0.165868 -0.011661 -4.056157 -11.585858 3.272649 0.221646 0.167900 4.399660 -0.137844 5.348405 -1.560503 0.205389 0.004639 0.023022 
13.844926 5.040285 82.802605 -4.922430 -1.319385 -108.058715 10.551243 0.336087 -5.300813 4.715916 0.035432 -2.403897 4.715918 0.035431 -2.403896 3.537146 0.008024 -1.803319 -6.392931 -17.923678 18.300184 -5.786976 2.492874 31.540328 6.502871 6.815681 -6.158395 66.253716 40.980554 22.476010 53.319271 39.094531 65.944493 15.321286 40.767948 29.080876 -7.169950 0.600328 -10.746533 -77.287053 46.603853 -67.049208 -47.859644 41.436944 -62.367291 48.225814 47.928510 7.964727 -3.243262 -11.889829 2.822267 -0.165501 -0.551135 0.760178 2.077686 7.186339 -2.631017 0.109976 0.158434 -0.010792 -4.045391 -11.593868 3.259606 0.209126 0.142353 4.465479 -0.130936 5.358703 -1.557265 0.179947 -0.012689 0.020559 
13.830976 5.070646 82.806442 -4.930725 -1.368195 -108.133369 10.556978 0.301865 -5.263873 4.718137 0.020777 -2.386009 4.718139 0.020777 -2.386008 3.538750 -0.002840 -1.789794 -6.395762 -17.929127 18.286687 -5.797213 2.485009 31.514127 6.548730 6.768392 -6.154566 66.170094 40.816101 22.332779 53.023486 39.513003 65.306396 12.914464 42.384329 28.806094 -7.168425 0.657933 -10.749435 -77.204545 46.599386 -67.014702 -47.843105 41.434397 -62.321945 48.100344 48.260358 7.903855 -3.239749 -11.839745 2.857168 -0.151207 -0.632273 0.778386 2.081285 7.180384 -2.584687 0.097444 0.151221 -0.010652 -4.029010 -11.595533 3.268222 0.201332 0.116238 4.514559 -0.120203 5.378283 -1.552560 0.154383 -0.033758 0.019255 
13.814917 5.099734 82.809868 -4.939829 -1.418741 -108.212558 10.561703 0.258487 -5.224549 4.719107 0.002452 -2.366778 4.719107 0.002452 -2.366782 3.539400 -0.016437 -1.775228 -6.395577 -17.932078 18.272721 -5.801636 2.481146 31.488268 6.565364 6.766893 -6.203239 65.881170 40.442752 21.913407 52.630521 39.752760 64.614273 9.169769 43.825632 27.496320 -7.157044 0.712916 -10.762499 -77.134863 46.599007 -66.988583 -47.857097 41.449129 -62.322703 47.984777 48.528344 7.893026 -3.230178 -11.780594 2.905841 -0.141293 -0.732077 0.802802 2.084805 7.183410 -2.578396 0.085414 0.144828 -0.011297 -4.008545 -11.603341 3.304336 0.184725 0.102214 4.536557 -0.101396 5.396273 -1.533430 0.131895 -0.054132 0.019708 
13.798022 5.127103 82.813683 -4.957614 -1.470675 -108.294992 10.560768 0.201600 -5.180388 4.716264 -0.021504 -2.345622 4.716263 -0.021504 -2.345620 3.537180 -0.034233 -1.759173 -6.386742 -17.929218 18.257756 -5.789571 2.486243 31.463943 6.586541 6.752516 -6.248203 65.520878 40.037408 21.428050 51.969526 39.909205 63.713562 5.191062 44.247096 25.229544 -7.138986 0.792797 -10.782704 -77.087892 46.587487 -66.972272 -47.922998 41.462165 -62.374756 47.748408 48.472685 7.735264 -3.223543 -11.719792 2.968184 -0.130567 -0.850620 0.828886 2.084847 7.193045 -2.565714 0.077875 0.141137 -0.011162 -3.989146 -11.619707 3.354924 0.168515 0.087801 4.560693 -0.081769 5.417485 -1.518591 0.110884 -0.072030 0.019986 
13.779405 5.153802 82.817749 -4.984307 -1.521212 -108.369906 10.556468 0.135199 -5.135786 4.710988 -0.049834 -2.323533 4.710989 -0.049834 -2.323533 3.533112 -0.055291 -1.742388 -6.374299 -17.920883 18.242704 -5.769927 2.500617 31.441116 6.634803 6.638351 -6.278299 65.212440 39.712151 21.060912 50.848255 39.869409 62.469812 2.062757 43.649833 22.728938 -7.108883 0.855084 -10.832275 -77.104025 46.615280 -67.011894 -47.960885 41.442005 -62.382365 47.525057 48.331392 7.540243 -3.216200 -11.658595 3.028163 -0.121671 -0.987694 0.844388 2.081368 7.210267 -2.539549 0.074506 0.138707 -0.010094 -3.970678 -11.638868 3.387375 0.153369 0.064199 4.584878 -0.061848 5.441433 -1.508944 0.092512 -0.085546 0.019412 
